<svg xmlns="http://www.w3.org/2000/svg" version="1.1" xmlns:xlink="http://www.w3.org/1999/xlink" xmlns:svgjs="http://svgjs.dev/svgjs" width="1000" height="623" viewBox="0 0 1000 623"><g transform="matrix(1,0,0,1,-0.6060606060606233,0.2522267206477409)"><svg viewBox="0 0 396 247" data-background-color="#ffffff" preserveAspectRatio="xMidYMid meet" height="623" width="1000" xmlns="http://www.w3.org/2000/svg" xmlns:xlink="http://www.w3.org/1999/xlink"><g id="tight-bounds" transform="matrix(1,0,0,1,0.2400000000000091,-0.09999999999999432)"><svg viewBox="0 0 395.52 247.2" height="247.2" width="395.52"><g><svg viewBox="0 0 395.52 247.2" height="247.2" width="395.52"><g transform="matrix(1,0,0,1,70.60438356164381,0)"><svg viewBox="0 0 254.31123287671235 247.2" height="247.2" width="254.31123287671235"><g><svg viewBox="0 0 254.31123287671235 247.2" height="247.2" width="254.31123287671235"><g><svg viewBox="0 0 254.31123287671235 247.2" height="247.2" width="254.31123287671235"><g id="textblocktransform"><svg viewBox="0 0 254.31123287671235 247.2" height="247.2" width="254.31123287671235" id="textblock"><g><svg viewBox="0 0 254.31123287671235 247.2" height="247.2" width="254.31123287671235"><g transform="matrix(1,0,0,1,0,0)"><svg width="254.31123287671235" viewBox="-0.6500000357627869 -36.5 37.55000305175781 36.5" height="247.2" data-palette-color="#8789fe"><path d="M21.65-2.9L25.75-3.95 23.2-11.7 11-11.7 8.4-3.95 12.55-2.9 12.55 0-0.65 0-0.65-2.9 3.45-3.95 15.15-36.5 21.3-36.5 32.9-3.95 36.9-2.9 36.9 0 21.65 0 21.65-2.9ZM17.35-29.9L17.15-29.9 12.25-15.35 22-15.35 17.35-29.9Z" opacity="1" transform="matrix(1,0,0,1,0,0)" fill="#8789fe" class="wordmark-text-0" data-fill-palette-color="primary" id="text-0"></path></svg></g></svg></g></svg></g></svg></g></svg></g></svg></g></svg></g><defs></defs></svg><rect width="395.52" height="247.2" fill="none" stroke="none" visibility="hidden"></rect></g></svg></g></svg>